<svg xmlns="http://www.w3.org/2000/svg" width="17.047" height="12.375" viewBox="0 0 17.047 12.375"><defs><style>.a{fill:#f1f3f4;}.b{fill:#9ac0fa;}</style></defs><g transform="translate(-1.449 -85.335)"><path class="a" d="M387.881,300.224h-.79v-.79a.766.766,0,1,0-1.532,0v.79h-.79a.766.766,0,0,0,0,1.532h.79v.79a.766.766,0,0,0,1.532,0v-.79h.79a.766.766,0,0,0,0-1.532Z" transform="translate(-370.151 -205.602)"/><path class="b" d="M15.491,87.852a2.407,2.407,0,0,0-2.281-2.517H2.281A2.407,2.407,0,0,0,0,87.852a.2.2,0,0,0,.187.207H15.3A.2.2,0,0,0,15.491,87.852Z" transform="translate(1.449)"/><path class="b" d="M15.491,202.208v.936a.415.415,0,0,1-.424.436,4.1,4.1,0,0,0-4.138,4.567.422.422,0,0,1-.4.468H2.281A2.407,2.407,0,0,1,0,206.1v-3.89A.2.2,0,0,1,.187,202H15.3A.2.2,0,0,1,15.491,202.208Z" transform="translate(1.449 -112.461)"/></g></svg>